<svg width="25" height="24" viewBox="0 0 25 24" fill="none" xmlns="http://www.w3.org/2000/svg">
<path d="M12.25 2C17.76 2 22.25 6.49 22.25 12C22.25 17.51 17.76 22 12.25 22C6.74 22 2.25 17.51 2.25 12C2.25 6.49 6.74 2 12.25 2ZM12.25 0C5.62 0 0.25 5.37 0.25 12C0.25 18.63 5.62 24 12.25 24C18.88 24 24.25 18.63 24.25 12C24.25 5.37 18.88 0 12.25 0Z" fill="#3C7C50"/>
<path d="M12.25 12C14.183 12 15.75 10.433 15.75 8.5C15.75 6.567 14.183 5 12.25 5C10.317 5 8.75 6.567 8.75 8.5C8.75 10.433 10.317 12 12.25 12Z" fill="#3C7C50"/>
<path d="M17.57 21.1404V15.2404C17.57 14.8004 17.25 14.4404 16.85 14.4404H7.64999C7.24999 14.4404 6.92999 14.8004 6.92999 15.2404V21.1404L11.92 22.9504L17.56 21.1404H17.57Z" fill="#3C7C50" stroke="#3C7C50" stroke-width="2" stroke-miterlimit="10"/>
</svg>
