<svg width="25" height="24" viewBox="0 0 25 24" fill="none" xmlns="http://www.w3.org/2000/svg">
<path d="M23.89 12.5801H1.61C1.13504 12.5801 0.75 12.9651 0.75 13.4401V23.1401C0.75 23.615 1.13504 24.0001 1.61 24.0001H23.89C24.365 24.0001 24.75 23.615 24.75 23.1401V13.4401C24.75 12.9651 24.365 12.5801 23.89 12.5801Z" fill="#3C7C50"/>
<path d="M22.75 6.74023V12.2402H2.75V6.74023H22.75ZM23.89 4.74023H1.61C1.13 4.74023 0.75 5.12023 0.75 5.60023V13.3902C0.75 13.8602 1.13 14.2502 1.61 14.2502H23.9C24.37 14.2502 24.76 13.8702 24.76 13.3902V5.60023C24.76 5.13023 24.38 4.74023 23.9 4.74023H23.89Z" fill="#3C7C50"/>
<path d="M8.57001 5.89953V1.72953C8.57001 1.33953 8.70001 1.01953 8.87001 1.01953H16.64C16.8 1.01953 16.94 1.33953 16.94 1.72953V5.88953" stroke="#3C7C50" stroke-width="2" stroke-miterlimit="10"/>
<path d="M12.75 10.5703V17.7003" stroke="#3C7C50" stroke-width="2" stroke-miterlimit="10" stroke-linecap="round"/>
</svg>
