<svg width="25" height="24" viewBox="0 0 25 24" fill="none" xmlns="http://www.w3.org/2000/svg">
<path d="M14.82 15.0626H16.81V16.1471C16.81 17.2116 15.96 17.9948 15.01 17.9948H8.69V16.2777H10.06V14.5605H9.15V13.6869H10.06V11.9597C10.06 10.1019 11.24 8.9873 12.93 8.9873C14.62 8.9873 16.08 9.75049 16.08 12.1907H14.06C14.06 11.1664 13.61 10.8551 13.02 10.8551C12.43 10.8551 12.06 11.3471 12.06 11.9999V13.6869H13.51V14.5605H12.06V16.2777H14.43C14.76 16.2777 14.82 16.0467 14.82 15.7354V15.0526V15.0626Z" fill="#0F2B18"/>
<path d="M12.75 2.13891L22.75 8.53557V21.9916H2.75V8.54561L12.75 2.13891ZM12.75 0C12.51 0 12.28 0.060251 12.07 0.190795L1.21 7.14979C0.92 7.33054 0.75 7.6318 0.75 7.9431V23.0259C0.75 23.5682 1.25 24 1.87 24H23.63C24.25 24 24.75 23.5682 24.75 23.0259V7.9431C24.75 7.6318 24.58 7.33054 24.3 7.14979L13.42 0.190795C13.22 0.060251 12.99 0 12.75 0Z" fill="#0F2B18"/>
</svg>
