<svg width="25" height="24" viewBox="0 0 25 24" fill="none" xmlns="http://www.w3.org/2000/svg">
<path d="M14.8199 15.0626H16.8099V16.1471C16.8099 17.2116 15.9599 17.9948 15.0099 17.9948H8.68994V16.2777H10.0599V14.5605H9.14994V13.6869H10.0599V11.9597C10.0599 10.1019 11.2399 8.9873 12.9299 8.9873C14.6199 8.9873 16.0799 9.75049 16.0799 12.1907H14.0599C14.0599 11.1664 13.6099 10.8551 13.0199 10.8551C12.4299 10.8551 12.0599 11.3471 12.0599 11.9999V13.6869H13.5099V14.5605H12.0599V16.2777H14.4299C14.7599 16.2777 14.8199 16.0467 14.8199 15.7354V15.0526V15.0626Z" fill="#3C7C50"/>
<path d="M12.75 2.13891L22.75 8.53557V21.9916H2.75V8.54561L12.75 2.13891ZM12.75 0C12.51 0 12.28 0.060251 12.07 0.190795L1.21 7.14979C0.92 7.33054 0.75 7.6318 0.75 7.9431V23.0259C0.75 23.5682 1.25 24 1.87 24H23.63C24.25 24 24.75 23.5682 24.75 23.0259V7.9431C24.75 7.6318 24.58 7.33054 24.3 7.14979L13.42 0.190795C13.22 0.060251 12.99 0 12.75 0Z" fill="#3C7C50"/>
</svg>
