<svg width="25" height="24" viewBox="0 0 25 24" fill="none" xmlns="http://www.w3.org/2000/svg">
<path d="M23.39 2.85961H18.47V20.2896C18.47 20.7596 18.09 21.1496 17.61 21.1496H6.02002V23.1496C6.02002 23.6196 6.40002 24.0096 6.88002 24.0096H23.4C23.87 24.0096 24.26 23.6296 24.26 23.1496V3.70961C24.26 3.23961 23.88 2.84961 23.4 2.84961L23.39 2.85961Z" fill="#3C7C50"/>
<path d="M5.96 7.78C6.51 7.78 6.95 7.33 6.95 6.79V0L0.25 7.78H5.96Z" fill="#3C7C50"/>
<path d="M4.79999 15.2002H13.93" stroke="#3C7C50" stroke-width="2" stroke-miterlimit="10" stroke-linecap="round"/>
<path d="M4.79999 11.4902H13.93" stroke="#3C7C50" stroke-width="2" stroke-miterlimit="10" stroke-linecap="round"/>
<path d="M16.48 2V19.14H2.25V7.51C2.25 7.51 2.27 7.41 2.3 7.38L6.87 2.07C6.87 2.07 6.97 2 7.02 2H16.47M17.61 0H7.03C6.39 0 5.78 0.28 5.36 0.76L0.78 6.07C0.44 6.47 0.25 6.98 0.25 7.51V20.29C0.25 20.76 0.63 21.15 1.11 21.15H17.63C18.1 21.15 18.49 20.77 18.49 20.29V0.86C18.49 0.39 18.11 0 17.63 0L17.61 0Z" fill="#3C7C50"/>
</svg>
